<svg width="40" height="24" viewBox="0 0 40 24" fill="none" xmlns="http://www.w3.org/2000/svg">
<path d="M27.5348 0.570541L27.5351 0.570555C28.7533 0.639052 29.923 0.784313 31.0794 1.10374L31.0796 1.10378C33.5092 1.77414 35.6261 3.17245 37.1557 5.15224L37.1558 5.15233C38.6766 7.11987 39.5 9.52777 39.5 12.0001C39.5 14.4739 38.6767 16.8802 37.1558 18.8478L37.1558 18.8478C35.6261 20.8269 33.5091 22.226 31.0796 22.8963L31.0794 22.8964C29.9232 23.2158 28.7535 23.3603 27.5348 23.4296C27.5348 23.4296 27.5348 23.4296 27.5348 23.4296L27.5631 23.9288C26.3131 23.9997 25.0643 23.9998 23.7952 23.9999C23.6788 23.9999 23.5622 23.9999 23.4455 24L27.5348 0.570541ZM27.5348 0.570541C26.2791 0.499304 25.0235 0.49968 23.7501 0.500062C23.657 0.50009 23.5639 0.500118 23.4706 0.500118H23.4705H23.4702H23.4697H23.4691H23.4684H23.4674H23.4664H23.4651H23.4638H23.4622H23.4606H23.4587H23.4568H23.4546H23.4524H23.4499H23.4473H23.4446H23.4418H23.4387H23.4356H23.4323H23.4288H23.4252H23.4215H23.4176H23.4136H23.4094H23.4051H23.4007H23.3961H23.3914H23.3865H23.3815H23.3764H23.3711H23.3657H23.3602H23.3545H23.3487H23.3427H23.3367H23.3305H23.3241H23.3177H23.3111H23.3043H23.2975H23.2905H23.2834H23.2761H23.2688H23.2613H23.2537H23.2459H23.2381H23.2301H23.222H23.2137H23.2054H23.1969H23.1883H23.1796H23.1707H23.1618H23.1527H23.1435H23.1342H23.1248H23.1153H23.1056H23.0959H23.086H23.076H23.0659H23.0557H23.0454H23.0349H23.0244H23.0137H23.003H22.9921H22.9811H22.97H22.9588H22.9475H22.9361H22.9246H22.913H22.9013H22.8895H22.8776H22.8656H22.8534H22.8412H22.8289H22.8165H22.804H22.7914H22.7787H22.7659H22.753H22.74H22.7269H22.7137H22.7004H22.6871H22.6736H22.6601H22.6464H22.6327H22.6189H22.605H22.591H22.5769H22.5627H22.5485H22.5341H22.5197H22.5052H22.4906H22.4759H22.4611H22.4463H22.4314H22.4164H22.4013H22.3861H22.3709H22.3555H22.3401H22.3247H22.3091H22.2935H22.2778H22.262H22.2461H22.2302H22.2142H22.1981H22.182H22.1658H22.1495H22.1331H22.1167H22.1002H22.0837H22.0671H22.0504H22.0336H22.0168H21.9999H21.9829H21.9659H21.9488H21.9317H21.9145H21.8972H21.8799H21.8625H21.8451H21.8276H21.81H21.7924H21.7747H21.757H21.7392H21.7214H21.7035H21.6855H21.6675H21.6495H21.6314H21.6132H21.595H21.5768H21.5585H21.5401H21.5217H21.5033H21.4848H21.4662H21.4476H21.429H21.4103H21.3916H21.3729H21.354H21.3352H21.3163H21.2974H21.2784H21.2594H21.2404H21.2213H21.2021H21.183H21.1638H21.1446H21.1253H21.106H21.0867H21.0673H21.0479H21.0285H21.009H20.9895H20.97H20.9504H20.9308H20.9112H20.8916H20.8719H20.8522H20.8325H20.8128H20.793H20.7732H20.7534H20.7335H20.7137H20.6938H20.6739H20.654H20.634H20.6141H20.5941H20.5741H20.5541H20.534H20.514H20.4939H20.4738H20.4538H20.4336H20.4135H20.3934H20.3733H20.3531H20.3329H20.3128H20.2926H20.2724H20.2522H20.232H20.2118H20.1916H20.1713H20.1511H20.1309H20.1106H20.0904H20.0701H20.0499H20.0297H20.0094H19.9892H19.9689H19.9487H19.9284H19.9082H19.888H19.8677H19.8475H19.8273H19.8071H19.7868H19.7666H19.7465H19.7263H19.7061H19.6859H19.6658H19.6456H19.6255H19.6053H19.5852H19.5651H19.545H19.525H19.5049H19.4849H19.4648H19.4448H19.4248H19.4049H19.3849H19.365H19.3451H19.3252H19.3053H19.2854H19.2656H19.2458H19.226H19.2062H19.1865H19.1668H19.1471H19.1275H19.1078H19.0882H19.0687H19.0491H19.0296H19.0101H18.9907H18.9712H18.9518H18.9325H18.9132H18.8939H18.8746H18.8554H18.8362H18.8171H18.798H18.7789H18.7598H18.7409H18.7219H18.703H18.6841H18.6653H18.6465H18.6277H18.609H18.5904H18.5718H18.5532H18.5347H18.5162H18.4977H18.4794H18.461H18.4427H18.4245H18.4063H18.3882H18.3701H18.3521H18.3341H18.3161H18.2983H18.2805H18.2627H18.245H18.2273H18.2097H18.1922H18.1747H18.1573H18.1399H18.1226H18.1054H18.0882H18.0711H18.054H18.037H18.0201H18.0032H17.9864H17.9697H17.953H17.9364H17.9199H17.9034H17.887H17.8707H17.8544H17.8382H17.8221H17.8061H17.7901H17.7742H17.7584H17.7426H17.727H17.7113H17.6958H17.6804H17.665H17.6497H17.6345H17.6193H17.6043H17.5893H17.5744H17.5596H17.5449H17.5302H17.5156H17.5012H17.4868H17.4725H17.4582H17.4441H17.43H17.4161H17.4022H17.3884H17.3747H17.3611H17.3476H17.3341H17.3208H17.3076H17.2944H17.2814H17.2684H17.2555H17.2428H17.2301H17.2175H17.205H17.1927H17.1804H17.1682H17.1561H17.1441H17.1323H17.1205H17.1088H17.0972H17.0858H17.0744H17.0631H17.052H17.0409H17.03H17.0192H17.0084H16.9978H16.9873H16.9769H16.9666H16.9565H16.9464H16.9364H16.9266H16.9169H16.9073H16.8978H16.8884H16.8791H16.87H16.861H16.852H16.8433H16.8346H16.826H16.8176H16.8093H16.8011H16.793H16.7851H16.7773H16.7696H16.762H16.7545H16.7472H16.74H16.733H16.726H16.7192H16.7125H16.706H16.6995H16.6932H16.6871H16.6811H16.6752H16.6694H16.6638H16.6583H16.6529H16.6477H16.6426H16.6377H16.6329H16.6282H16.6236H16.6193H16.615H16.6109H16.6069H16.6031H16.5994H16.5958H16.5925H16.5892H16.5861H16.5831H16.5803H16.5776H16.5751H16.5727H16.5705H16.5684H16.5665H16.5647H16.5631H16.5616H16.5603H16.5591H16.5581H16.5573H16.5566H16.556H16.5556H16.5554L16.5553 0.000117831M27.5348 0.570541L16.5553 0.000117831M16.5553 0.000117831V0.500118C16.4601 0.500118 16.3651 0.50009 16.2704 0.500062C14.9755 0.49968 13.7201 0.49931 12.4652 0.57054L12.4649 0.570556C11.2459 0.639054 10.0762 0.784315 8.9198 1.10374L8.91965 1.10378C6.49001 1.77414 4.37311 3.17245 2.84351 5.15224L2.84344 5.15233C1.32263 7.1198 0.5 9.52768 0.5 11.9993C0.5 14.474 1.32263 16.8803 2.84344 18.8478L2.44784 19.1536L2.84345 18.8478C4.37312 20.8269 6.49009 22.226 8.91965 22.8963L8.9198 22.8964C10.076 23.2158 11.2457 23.3603 12.4652 23.4296C12.4652 23.4296 12.4652 23.4296 12.4652 23.4296L12.4369 23.9288L16.5553 0.000117831Z" fill="#ED5267" stroke="#ED5267" stroke-linecap="round" stroke-linejoin="round"/>
<path fill-rule="evenodd" clip-rule="evenodd" d="M28 21C23.0294 21 19 16.9706 19 12C19 7.02944 23.0294 3 28 3C32.9706 3 37 7.02944 37 12C37 16.9706 32.9706 21 28 21Z" fill="white"/>
</svg>
